<svg width="128" height="128" viewBox="0 0 128 128" fill="none" xmlns="http://www.w3.org/2000/svg">
<path d="M64 92C79.464 92 92 79.464 92 64C92 48.536 79.464 36 64 36C48.536 36 36 48.536 36 64C36 79.464 48.536 92 64 92Z" fill="#FFD166" stroke="#1B2743" stroke-width="4"/>
<path d="M50 99C61.0457 99 70 92.732 70 85C70 77.268 61.0457 71 50 71C38.9543 71 30 77.268 30 85C30 92.732 38.9543 99 50 99Z" fill="#F0F4F8" stroke="#1B2743" stroke-width="3"/>
<path d="M75 101C89.3594 101 101 93.8366 101 85C101 76.1634 89.3594 69 75 69C60.6406 69 49 76.1634 49 85C49 93.8366 60.6406 101 75 101Z" fill="#F0F4F8" stroke="#1B2743" stroke-width="3"/>
<path d="M100 97C109.941 97 118 91.6274 118 85C118 78.3726 109.941 73 100 73C90.0589 73 82 78.3726 82 85C82 91.6274 90.0589 97 100 97Z" fill="#F0F4F8" stroke="#1B2743" stroke-width="3"/>
</svg>
