<svg width="128" height="128" viewBox="0 0 128 128" fill="none" xmlns="http://www.w3.org/2000/svg">
<path d="M64 92C79.464 92 92 79.464 92 64C92 48.536 79.464 36 64 36C48.536 36 36 48.536 36 64C36 79.464 48.536 92 64 92Z" fill="#FFD166" stroke="#1B2743" stroke-width="4"/>
<path d="M50 99C61.0457 99 70 92.732 70 85C70 77.268 61.0457 71 50 71C38.9543 71 30 77.268 30 85C30 92.732 38.9543 99 50 99Z" fill="#F0F4F8" stroke="#1B2743" stroke-width="3"/>
<path d="M75 101C89.3594 101 101 93.8366 101 85C101 76.1634 89.3594 69 75 69C60.6406 69 49 76.1634 49 85C49 93.8366 60.6406 101 75 101Z" fill="#F0F4F8" stroke="#1B2743" stroke-width="3"/>
<path d="M100 97C109.941 97 118 91.6274 118 85C118 78.3726 109.941 73 100 73C90.0589 73 82 78.3726 82 85C82 91.6274 90.0589 97 100 97Z" fill="#F0F4F8" stroke="#1B2743" stroke-width="3"/>
<path d="M36.0012 120.18C35.3412 120.18 34.7052 120.12 34.0932 120C33.4932 119.892 32.9352 119.73 32.4192 119.514C31.9152 119.298 31.4652 119.04 31.0692 118.74L31.7712 116.922C32.1672 117.198 32.5812 117.438 33.0132 117.642C33.4572 117.834 33.9252 117.984 34.4172 118.092C34.9212 118.188 35.4492 118.236 36.0012 118.236C36.9492 118.236 37.6392 118.08 38.0712 117.768C38.5032 117.444 38.7192 117.03 38.7192 116.526C38.7192 116.25 38.6532 116.016 38.5212 115.824C38.3892 115.62 38.1732 115.446 37.8732 115.302C37.5732 115.158 37.1772 115.038 36.6852 114.942L34.7052 114.528C33.5652 114.288 32.7132 113.886 32.1492 113.322C31.5972 112.746 31.3212 111.99 31.3212 111.054C31.3212 110.262 31.5312 109.572 31.9512 108.984C32.3712 108.396 32.9532 107.94 33.6972 107.616C34.4412 107.292 35.2992 107.13 36.2712 107.13C36.8472 107.13 37.3992 107.19 37.9272 107.31C38.4672 107.418 38.9592 107.586 39.4032 107.814C39.8592 108.03 40.2552 108.294 40.5912 108.606L39.8892 110.334C39.3852 109.914 38.8332 109.602 38.2332 109.398C37.6332 109.182 36.9732 109.074 36.2532 109.074C35.7012 109.074 35.2272 109.152 34.8312 109.308C34.4352 109.464 34.1292 109.686 33.9132 109.974C33.7092 110.25 33.6072 110.58 33.6072 110.964C33.6072 111.396 33.7512 111.744 34.0392 112.008C34.3272 112.26 34.8192 112.458 35.5152 112.602L37.4772 113.016C38.6652 113.268 39.5472 113.664 40.1232 114.204C40.7112 114.744 41.0052 115.464 41.0052 116.364C41.0052 117.12 40.8012 117.786 40.3932 118.362C39.9852 118.938 39.4032 119.388 38.6472 119.712C37.9032 120.024 37.0212 120.18 36.0012 120.18ZM42.7667 120V107.31H45.0167V114.942H45.0527L48.5987 111.198H51.3167L46.8887 115.878V114.942L51.5687 120H48.8147L45.0527 116.076H45.0167V120H42.7667ZM52.8927 123.24L54.7287 119.19V120.126L50.8587 111.198H53.2527L55.9887 118.02H55.4487L58.2387 111.198H60.5067L55.2147 123.24H52.8927ZM67.6953 120.18C66.3753 120.18 65.2413 119.916 64.2933 119.388C63.3573 118.848 62.6373 118.092 62.1333 117.12C61.6293 116.136 61.3773 114.978 61.3773 113.646C61.3773 112.314 61.6293 111.162 62.1333 110.19C62.6373 109.218 63.3573 108.468 64.2933 107.94C65.2413 107.4 66.3753 107.13 67.6953 107.13C68.5473 107.13 69.3513 107.262 70.1073 107.526C70.8753 107.79 71.5053 108.168 71.9973 108.66L71.2413 110.496C70.7013 110.04 70.1493 109.71 69.5853 109.506C69.0213 109.29 68.4153 109.182 67.7673 109.182C66.4833 109.182 65.5053 109.572 64.8333 110.352C64.1613 111.12 63.8253 112.218 63.8253 113.646C63.8253 115.074 64.1613 116.178 64.8333 116.958C65.5053 117.738 66.4833 118.128 67.7673 118.128C68.4153 118.128 69.0213 118.026 69.5853 117.822C70.1493 117.606 70.7013 117.27 71.2413 116.814L71.9973 118.65C71.5053 119.13 70.8753 119.508 70.1073 119.784C69.3513 120.048 68.5473 120.18 67.6953 120.18ZM76.3737 120.18C75.7377 120.18 75.1677 120.06 74.6637 119.82C74.1717 119.568 73.7817 119.232 73.4937 118.812C73.2177 118.392 73.0797 117.918 73.0797 117.39C73.0797 116.742 73.2477 116.232 73.5837 115.86C73.9197 115.476 74.4657 115.2 75.2217 115.032C75.9777 114.864 76.9917 114.78 78.2637 114.78H79.1637V116.076H78.2817C77.7177 116.076 77.2437 116.1 76.8597 116.148C76.4757 116.184 76.1637 116.25 75.9237 116.346C75.6957 116.43 75.5277 116.55 75.4197 116.706C75.3237 116.862 75.2757 117.054 75.2757 117.282C75.2757 117.678 75.4137 118.002 75.6897 118.254C75.9657 118.506 76.3497 118.632 76.8417 118.632C77.2377 118.632 77.5857 118.542 77.8857 118.362C78.1977 118.17 78.4437 117.912 78.6237 117.588C78.8037 117.264 78.8937 116.892 78.8937 116.472V114.402C78.8937 113.802 78.7617 113.37 78.4977 113.106C78.2337 112.842 77.7897 112.71 77.1657 112.71C76.6737 112.71 76.1697 112.788 75.6537 112.944C75.1377 113.088 74.6157 113.316 74.0877 113.628L73.4397 112.098C73.7517 111.882 74.1177 111.696 74.5377 111.54C74.9697 111.372 75.4197 111.246 75.8877 111.162C76.3677 111.066 76.8177 111.018 77.2377 111.018C78.1017 111.018 78.8097 111.15 79.3617 111.414C79.9257 111.678 80.3457 112.08 80.6217 112.62C80.8977 113.148 81.0357 113.832 81.0357 114.672V120H78.9297V118.128H79.0737C78.9897 118.548 78.8217 118.914 78.5697 119.226C78.3297 119.526 78.0237 119.76 77.6517 119.928C77.2797 120.096 76.8537 120.18 76.3737 120.18ZM86.5414 120.18C86.0494 120.18 85.5694 120.138 85.1014 120.054C84.6454 119.97 84.2254 119.856 83.8414 119.712C83.4574 119.556 83.1214 119.364 82.8334 119.136L83.4094 117.66C83.7094 117.852 84.0334 118.02 84.3814 118.164C84.7294 118.308 85.0894 118.416 85.4614 118.488C85.8334 118.56 86.1994 118.596 86.5594 118.596C87.1354 118.596 87.5614 118.5 87.8374 118.308C88.1254 118.104 88.2694 117.84 88.2694 117.516C88.2694 117.24 88.1734 117.03 87.9814 116.886C87.8014 116.73 87.5254 116.616 87.1534 116.544L85.3534 116.202C84.6094 116.058 84.0394 115.788 83.6434 115.392C83.2594 114.984 83.0674 114.462 83.0674 113.826C83.0674 113.25 83.2234 112.752 83.5354 112.332C83.8594 111.912 84.3034 111.588 84.8674 111.36C85.4314 111.132 86.0794 111.018 86.8114 111.018C87.2314 111.018 87.6394 111.06 88.0354 111.144C88.4314 111.216 88.8034 111.33 89.1514 111.486C89.5114 111.63 89.8234 111.822 90.0874 112.062L89.4754 113.538C89.2474 113.346 88.9834 113.184 88.6834 113.052C88.3834 112.908 88.0714 112.8 87.7474 112.728C87.4354 112.644 87.1294 112.602 86.8294 112.602C86.2414 112.602 85.8034 112.704 85.5154 112.908C85.2394 113.112 85.1014 113.382 85.1014 113.718C85.1014 113.97 85.1854 114.18 85.3534 114.348C85.5214 114.516 85.7794 114.63 86.1274 114.69L87.9274 115.032C88.7074 115.176 89.2954 115.44 89.6914 115.824C90.0994 116.208 90.3034 116.724 90.3034 117.372C90.3034 117.96 90.1474 118.464 89.8354 118.884C89.5234 119.304 89.0854 119.628 88.5214 119.856C87.9574 120.072 87.2974 120.18 86.5414 120.18ZM96.0526 120.18C94.8766 120.18 94.0006 119.886 93.4246 119.298C92.8486 118.71 92.5606 117.852 92.5606 116.724V112.89H90.8686V111.198H92.5606V108.57H94.8106V111.198H97.4746V112.89H94.8106V116.598C94.8106 117.174 94.9366 117.606 95.1886 117.894C95.4406 118.182 95.8486 118.326 96.4126 118.326C96.5806 118.326 96.7546 118.308 96.9346 118.272C97.1146 118.224 97.3006 118.176 97.4926 118.128L97.8346 119.784C97.6186 119.904 97.3426 120 97.0066 120.072C96.6826 120.144 96.3646 120.18 96.0526 120.18Z" fill="#1B2743"/>
</svg>
